<?xml version="1.0" encoding="UTF-8"?>
<svg id="Layer_2" data-name="Layer 2" xmlns="http://www.w3.org/2000/svg" viewBox="0 0 33.89 38.23">
  <defs>
    <style>
      .cls-1 {
        fill: #fff;
        stroke: #fff;
        stroke-miterlimit: 10;
      }
    </style>
  </defs>
  <g id="Layer_1-2" data-name="Layer 1">
    <g>
      <g>
        <path class="cls-1" d="m24.78,1.12l-.38-.62-8.76.06.02.04.73,1.18.17.28,2.9,4.75.74,1.22,4,6.54h8.8L24.78,1.12Zm-3.65,6.06l-.71-1.18-2.58-4.22-.04-.07h5.9l.37.6,6.73,11.03h-5.9l-3.76-6.16Z"/>
        <path class="cls-1" d="m24.4.5l-8.76.06-5.17.04h-1.82s-.01.01-.01.01l-1.3,2.17-1.82,5.35,5.93-.04h1.44s7.32-.06,7.32-.06h.42l.5-.85-.71-1.18-.49.81h-.46l-5.82.04h-1.45s-5.9.05-5.9.05l1.62-2.71,1.41-2.36h.02l7.04-.05h1.44l-.04-.07h5.9l.37.6.71-1.19-.38-.62Z"/>
        <path class="cls-1" d="m15.66.6h-7.01s-1.32,2.18-1.32,2.18L.8,13.47l-.27.44v.79h8.32l.28-.47,3.75-6.15.76-1.23h-1.45s-.75,1.24-.75,1.24l-3.28,5.38H2.25l3.26-5.34,2.4-3.94,1.44-2.36,7.04-.05.17.28.17-.28-1.07-1.18Z"/>
        <path class="cls-1" d="m.8,13.47l-.27.44v5.82h8.6v-6.26H.8Zm7.1,5.03H1.76v-3.8h6.14v3.8Z"/>
      </g>
      <g>
        <path class="cls-1" d="m32.96,23.65h-8.8l-4,6.54-.74,1.22-2.9,4.75-.17.28-.73,1.18-.02.04,8.76.06.38-.62,8.22-13.46Zm-8.11,1.23h5.9l-6.73,11.03-.37.6h-5.9l.04-.07,2.58-4.22.71-1.18,3.76-6.16Z"/>
        <path class="cls-1" d="m24.75,37.11l-.71-1.19-.37.6h-5.9l.04-.07h-1.44l-7.04-.05h-.02l-1.41-2.36-1.62-2.71,5.9.04h1.45s5.82.05,5.82.05h.46l.49.81.71-1.18-.5-.85h-.42l-7.32-.05h-1.44s-5.93-.05-5.93-.05l1.82,5.35,1.3,2.17h1.83s5.17.05,5.17.05l8.76.06.38-.62Z"/>
        <path class="cls-1" d="m16.7,36.45l-.17-.28-.17.28-7.04-.05-1.44-2.36-2.4-3.94-3.26-5.34h5.9l3.28,5.38.75,1.23h1.45s-.76-1.22-.76-1.22l-3.75-6.15-.28-.47H.5v.79l.27.44,6.53,10.69,1.32,2.17h.01s7,.01,7,.01l1.07-1.18Z"/>
        <path class="cls-1" d="m9.1,24.76v-6.26H.5v5.82l.27.44h8.33Zm-1.23-1.23H1.73v-3.8h6.14v3.8Z"/>
      </g>
    </g>
  </g>
</svg>