<?xml version="1.0" encoding="UTF-8"?>
<svg id="Layer_2" data-name="Layer 2" xmlns="http://www.w3.org/2000/svg" viewBox="0 0 109.19 40.25">
  <defs>
    <style>
      .cls-1 {
        letter-spacing: -.03em;
      }

      .cls-2, .cls-3 {
        fill: #fff;
      }

      .cls-3 {
        font-family: Nexa-ExtraLight, Nexa;
        font-size: 33.72px;
        font-weight: 200;
      }
    </style>
  </defs>
  <g id="Layer_1-2" data-name="Layer 1">
    <g>
      <g>
        <path class="cls-2" d="m24.28.62l-.38-.62-8.76.06.02.04.73,1.18.17.28,2.9,4.75.74,1.22,4,6.54h8.8L24.28.62Zm-3.65,6.06l-.71-1.18-2.58-4.22-.04-.07h5.9l.37.6,6.73,11.03h-5.9l-3.76-6.16Z"/>
        <path class="cls-2" d="m23.9,0l-8.76.06-5.17.04h-1.82s-.01.01-.01.01l-1.3,2.17-1.82,5.35,5.93-.04h1.44s7.32-.06,7.32-.06h.42l.5-.85-.71-1.18-.49.81h-.46l-5.82.04h-1.45s-5.9.05-5.9.05l1.62-2.71,1.41-2.36h.02l7.04-.05h1.44l-.04-.07h5.9l.37.6.71-1.19-.38-.62Z"/>
        <path class="cls-2" d="m15.16.1h-7.01s-1.32,2.18-1.32,2.18L.3,12.97l-.27.44v.79h8.32l.28-.47,3.75-6.15.76-1.23h-1.45s-.75,1.24-.75,1.24l-3.28,5.38H1.75l3.26-5.34,2.4-3.94,1.44-2.36,7.04-.05.17.28.17-.28L15.16.1Z"/>
        <path class="cls-2" d="m.3,12.97l-.27.44v5.82h8.6v-6.26H.3Zm7.1,5.03H1.26v-3.8h6.14v3.8Z"/>
      </g>
      <g>
        <path class="cls-2" d="m32.46,23.15h-8.8l-4,6.54-.74,1.22-2.9,4.75-.17.28-.73,1.18-.02.04,8.76.06.38-.62,8.22-13.46Zm-8.11,1.23h5.9l-6.73,11.03-.37.6h-5.9l.04-.07,2.58-4.22.71-1.18,3.76-6.16Z"/>
        <path class="cls-2" d="m24.25,36.61l-.71-1.19-.37.6h-5.9l.04-.07h-1.44l-7.04-.05h-.02l-1.41-2.36-1.62-2.71,5.9.04h1.45s5.82.05,5.82.05h.46l.49.81.71-1.18-.5-.85h-.42l-7.32-.05h-1.44s-5.93-.05-5.93-.05l1.82,5.35,1.3,2.17h1.83s5.17.05,5.17.05l8.76.06.38-.62Z"/>
        <path class="cls-2" d="m16.2,35.95l-.17-.28-.17.28-7.04-.05-1.44-2.36-2.4-3.94-3.26-5.34h5.9l3.28,5.38.75,1.23h1.45s-.76-1.22-.76-1.22l-3.75-6.15-.28-.47H0v.79l.27.44,6.53,10.69,1.32,2.17h.01s7,.01,7,.01l1.07-1.18Z"/>
        <path class="cls-2" d="m8.6,24.26v-6.26H0v5.82l.27.44h8.33Zm-1.23-1.23H1.23v-3.8h6.14v3.8Z"/>
      </g>
    </g>
    <text class="cls-3" transform="translate(35.53 30.2)"><tspan x="0" y="0">RIP</tspan><tspan class="cls-1" x="54.31" y="0">T</tspan></text>
  </g>
</svg>